<svg width="32" height="33" viewBox="0 0 32 33" fill="none" xmlns="http://www.w3.org/2000/svg">
<path d="M14.2704 22.1135H23.104V24.7807H8.52002V22.1135H11.0894V17.2195H8.52002V15.213H11.0894V14.0874C11.0894 12.7334 11.383 11.5588 11.9703 10.5637C12.5739 9.55229 13.4466 8.77741 14.5885 8.23908C15.7305 7.68443 17.1008 7.4071 18.6995 7.4071C20.6407 7.4071 22.2476 7.79046 23.52 8.55719L22.5168 11.151C21.5217 10.5148 20.1921 10.1967 18.5282 10.1967C17.1416 10.1967 16.0812 10.5311 15.3471 11.1999C14.6293 11.8525 14.2704 12.8068 14.2704 14.0629V15.213H20.4613V17.2195H14.2704V22.1135Z" fill="black"/>
</svg>
