<svg width="256" height="31" viewBox="0 0 256 31" fill="none" xmlns="http://www.w3.org/2000/svg">
<path d="M81.1442 15.4913V1.38623L90.152 1.45134C98.8915 1.51451 99.2015 1.5291 100.559 1.94118C104.002 2.98653 106.421 5.05155 107.377 7.76147C108.977 12.294 107.22 17.3359 103.312 19.4282L102.254 19.9949L105.343 24.4689C107.041 26.9296 108.511 29.0899 108.609 29.2696C108.777 29.5772 108.479 29.5963 103.489 29.5963H98.1912L95.558 25.5824L92.9249 21.5686H91.7952H90.6654V25.5824V29.5963H85.9048H81.1442V15.4913ZM96.6735 14.6288C98.7096 14.0188 99.3266 11.1541 97.6907 9.90639C96.8803 9.28822 95.5845 9.06033 92.8802 9.06033H90.6654V11.954V14.8477H93.3041C94.7824 14.8477 96.2641 14.7515 96.6735 14.6288Z" fill="white"/>
<path d="M110.202 29.0871C110.272 28.8071 110.723 27.0639 111.204 25.2133L112.079 21.8484L121.009 21.7999C130.824 21.7466 130.617 21.7721 130.617 20.6194C130.617 19.5193 130.591 19.5148 124.189 19.5148C120.975 19.5148 117.894 19.4291 117.342 19.3243C113.24 18.5463 110.091 14.7385 110.083 10.5462C110.076 6.61674 112.64 3.121 116.374 1.96764C117.524 1.61237 118.101 1.59253 127.276 1.59253H136.965V5.51303V9.43353H127.821H118.678L118.373 9.89889C117.971 10.512 118.162 11.2587 118.78 11.4937C119.048 11.5957 121.831 11.6738 125.196 11.6738C131.969 11.6738 132.591 11.7726 134.703 13.1825C136.185 14.1721 137.046 15.1818 137.876 16.9011C138.542 18.2807 138.552 18.3357 138.552 20.635C138.552 22.9357 138.542 22.9883 137.874 24.3688C137.036 26.1022 136.095 27.2021 134.651 28.1355C132.373 29.6077 132.485 29.5961 120.606 29.5961H110.074L110.202 29.0871Z" fill="white"/>
<path d="M147.419 19.4216V9.24701H143.219H139.018V5.32651V1.40601H152.087H165.155V5.32651V9.24701H160.954H156.754V19.4216V29.5963H152.087H147.419V19.4216Z" fill="white"/>
<path d="M176.972 29.6939C176.025 29.449 174.477 28.8498 173.519 28.3571C172.092 27.6233 171.466 27.1466 170.005 25.6831C166.999 22.6707 165.912 20.2267 165.76 16.1387C165.658 13.3885 166.024 11.5351 167.104 9.33497C169.717 4.01246 175.041 0.796293 181.21 0.813792C184.586 0.823373 187.315 1.5678 189.915 3.18784C197.215 7.7383 198.952 17.5394 193.655 24.2959C191.46 27.0952 188.162 29.1315 184.599 29.8866C182.584 30.3136 179.022 30.2236 176.972 29.6939ZM182.587 21.8469C188.23 20.3771 188.924 12.2276 183.637 9.51866C182.682 9.02924 180.385 8.93228 179.185 9.33075C177.92 9.75115 176.511 11.0406 175.852 12.3828C175.376 13.3529 175.33 13.6297 175.33 15.501C175.33 17.3804 175.373 17.6372 175.843 18.5279C176.125 19.0631 176.602 19.7817 176.903 20.1247C177.801 21.1471 179.649 21.9964 181.218 22.1081C181.376 22.1193 181.992 22.0018 182.587 21.8469Z" fill="white"/>
<path d="M211.268 30.1277C209.366 29.9816 207.685 29.5665 206.119 28.8563C198.695 25.4904 195.56 16.4484 199.221 8.96689C200.678 5.99 202.862 3.77601 205.76 2.34038C208.03 1.21565 209.797 0.820539 212.578 0.815469C216.86 0.807668 220.112 1.96676 222.769 4.44756C223.998 5.59543 225.795 7.85814 225.613 8.02778C225.578 8.06019 223.828 9.10152 221.724 10.3419L217.898 12.597L217.57 11.958C217.151 11.1405 216.09 10.1098 215.265 9.71835C214.277 9.24965 212.684 9.04957 211.58 9.25575C209.791 9.58999 208.188 11.148 207.591 13.1332C207.134 14.6494 207.191 16.8777 207.723 18.3014C208.309 19.8702 209.728 21.2494 211.195 21.6758C212.481 22.0498 214.098 21.9378 215.148 21.4021C215.82 21.0593 217.191 19.7311 217.842 18.7913L218.15 18.3476L221.681 20.3368C223.623 21.4308 225.354 22.4292 225.526 22.5555C225.814 22.7661 225.796 22.854 225.306 23.6236C224.063 25.5773 221.771 27.6123 219.575 28.7125C217.254 29.8757 214.374 30.3663 211.268 30.1277Z" fill="white"/>
<path d="M227.136 15.5011V1.40601H231.801H236.465L236.515 6.77156L236.564 12.1371L240.671 6.77158L244.778 1.40604L250.157 1.40603C253.115 1.40602 255.495 1.47064 255.446 1.54964C255.398 1.62864 253.211 4.37733 250.587 7.65784C246.2 13.1426 245.835 13.6529 246.061 14.0017C247.621 16.4191 255.7 29.3956 255.7 29.4839C255.7 29.5488 253.209 29.5796 250.165 29.5524L244.631 29.5029L241.887 25.144C240.378 22.7466 239.096 20.7724 239.038 20.7568C238.98 20.7412 238.381 21.4006 237.706 22.222L236.479 23.7155L236.475 26.6559L236.471 29.5963H231.803H227.136V15.5011Z" fill="white"/>
<path d="M55.2705 29.1099C57.1379 24.2879 59.3014 18.5007 59.3014 18.3277C59.3014 18.2029 57.1041 16.6801 54.4185 14.9437C51.7328 13.2073 49.6296 11.7552 49.7446 11.7169C49.8596 11.6785 52.49 11.783 55.59 11.949C58.6899 12.115 61.2829 12.184 61.3523 12.1024C61.4216 12.0207 62.1412 9.45634 62.9514 6.40374C63.7616 3.35114 64.4777 0.914829 64.5428 0.989718C64.6078 1.06461 65.3142 3.56219 66.1125 6.53991C66.9107 9.51762 67.6229 12.0196 67.695 12.0998C67.7672 12.18 70.2751 12.1109 73.2682 11.9463C76.2613 11.7817 78.8868 11.6741 79.1026 11.7071C79.3806 11.7497 78.0699 12.6927 74.6079 14.941C71.92 16.6865 69.6991 18.1567 69.6726 18.2081C69.6461 18.2594 70.5677 20.7377 71.7207 23.7154C72.8736 26.6931 73.7921 29.1577 73.7617 29.1923C73.7313 29.2269 71.7914 27.7147 69.4508 25.8319C67.1102 23.9491 65.0407 22.2957 64.852 22.1577C64.4574 21.8692 64.8978 21.5545 58.9122 26.4029C56.8339 28.0863 55.1951 29.3045 55.2705 29.1099Z" fill="white"/>
<path d="M37.8321 19.4216V9.24701H33.5382H29.2443V5.32651V1.40601H42.406H55.5677V5.32651V9.24701H51.3671H47.1666V19.4216V29.5963H42.4993H37.8321V19.4216Z" fill="white"/>
<path d="M0.427484 29.0827C0.497512 28.8003 0.947829 27.0571 1.4282 25.2089L2.3016 21.8484L11.233 21.7999C21.0506 21.7466 20.8432 21.7721 20.8432 20.6194C20.8432 19.5193 20.8169 19.5148 14.4145 19.5148C11.2015 19.5148 8.1201 19.4309 7.56701 19.3283C4.21679 18.7071 1.31265 15.8785 0.496593 12.4418C0.173108 11.0795 0.345134 8.69705 0.866457 7.3194C1.78128 4.90191 4.0896 2.74294 6.5829 1.97284C7.75467 1.61092 8.28277 1.59253 17.5025 1.59253H27.1907V5.51303V9.43353H18.0535H8.91621L8.62559 9.84845C8.26493 10.3634 8.25762 10.7498 8.59969 11.2181C8.85067 11.5617 9.20681 11.5855 15.4606 11.677C21.8181 11.7701 22.0961 11.7893 23.144 12.209C29.9222 14.9234 30.9293 24.2159 24.8705 28.1384C22.6019 29.6071 22.708 29.5961 10.8321 29.5961H0.300171L0.427484 29.0827Z" fill="white"/>
</svg>
