<svg width="24" height="25" viewBox="0 0 24 25" fill="none" xmlns="http://www.w3.org/2000/svg">
<path d="M9.95929 0.5C4.46927 0.499995 0 4.98191 0 10.4874C4.69189e-06 15.993 4.46928 20.4749 9.95929 20.4749C12.3846 20.4749 14.6098 19.5994 16.3394 18.1482L22.3982 24.2244C22.5742 24.4009 22.8129 24.5 23.0617 24.5C23.3106 24.5 23.5492 24.4009 23.7252 24.2244C23.9012 24.0479 24 23.8086 24 23.5591C24 23.3095 23.9012 23.0702 23.7252 22.8937L17.6601 16.8117C19.0703 15.088 19.9186 12.8849 19.9186 10.4874C19.9186 4.98191 15.4493 0.499995 9.95929 0.5ZM9.95929 2.24992C14.5063 2.24992 18.1736 5.9276 18.1736 10.4874C18.1736 15.0473 14.5063 18.7252 9.95929 18.7252C5.41231 18.7252 1.74474 15.0473 1.74474 10.4874C1.74474 5.9276 5.4123 2.24992 9.95929 2.24992Z" fill="#131B25"/>
</svg>
