<svg width="24" height="27" viewBox="0 0 24 27" fill="none" xmlns="http://www.w3.org/2000/svg">
<path d="M12 0.300003C7.37344 0.300003 3.6 4.07344 3.6 8.7C3.6 11.5922 5.07656 14.1609 7.3125 15.675C3.03281 17.5125 0 21.7594 0 26.7H2.4C2.4 21.3844 6.68438 17.1 12 17.1C17.3156 17.1 21.6 21.3844 21.6 26.7H24C24 21.7594 20.9672 17.5125 16.6875 15.675C18.9234 14.1609 20.4 11.5922 20.4 8.7C20.4 4.07344 16.6266 0.300003 12 0.300003ZM12 2.7C15.3281 2.7 18 5.37188 18 8.7C18 12.0281 15.3281 14.7 12 14.7C8.67188 14.7 6 12.0281 6 8.7C6 5.37188 8.67188 2.7 12 2.7Z" fill="#1C2638"/>
</svg>
